<svg xmlns="http://www.w3.org/2000/svg" viewBox="0 0 964.059 265.886"><g style="white-space:pre" aria-label="GABRIEL LOPEZ" font-weight="400" font-size="20" font-family="Lilita One" fill="#008ccf"><path d="M334.153 140.474l.191-13.029q0-1.34 2.779-1.724 2.778-.48 4.598-.48l3.736.288q3.64.575 3.64 2.012l-.383 29.986q-1.916 1.34-7.76 2.682-5.747 1.245-13.22 1.245-13.89 0-22.417-9.005-8.526-9.005-8.526-26.44 0-14.85 8.334-24.142 8.335-9.293 23.088-9.293 6.706 0 12.071 1.341 5.46 1.246 7.472 3.45.096.766.096 2.873 0 2.108-1.437 6.036-1.437 3.832-3.257 5.748-1.82 1.916-2.682 1.916-.767 0-1.725-.671-.862-.766-3.544-1.533-2.683-.862-5.174-.862-5.94 0-9.675 3.832-3.64 3.832-3.64 11.88 0 8.046 3.735 12.262 3.832 4.119 8.718 4.119 4.982 0 4.982-2.49zM403.234 160.688q-8.335 0-9.006-2.682l-3.161-12.359h-15.232l-2.778 11.88q-.575 2.97-9.197 2.97-4.599 0-6.802-.48-2.203-.574-2.203-.862L371.81 94.3q0-.767 13.125-.767 13.124 0 13.124.767l16.574 64.952q0 .67-4.407 1.054-4.407.383-6.993.383zM378.23 133.48h10.059l-4.311-19.83h-.575zM467.927 110.776q0 9.963-8.622 15.137 4.694 1.724 7.856 5.94 3.161 4.214 3.161 11.974 0 7.664-5.748 12.167-5.652 4.502-16.286 4.502h-22.609q-1.628 0-2.682-1.053-1.054-1.15-1.054-2.97V95.16q0-1.054.287-1.341.384-.384 1.437-.384h21.843q22.417 0 22.417 17.34zm-27.59-1.82v12.55h.479q9.196 0 9.196-6.131 0-3.353-1.82-4.886-1.724-1.533-5.844-1.533zm0 23.854v12.454h1.724q4.12 0 6.035-1.533 1.916-1.532 1.916-4.885 0-3.353-1.82-4.695-1.724-1.34-5.844-1.34zM496.068 159.155q0 1.533-9.1 1.533-9.198 0-9.198-1.437V96.789q0-3.353 3.545-3.353h18.298q25.195 0 25.195 19.64 0 5.939-2.299 10.825-2.3 4.79-6.514 7.664l12.07 20.118q-.766 2.299-4.981 5.269-5.748 4.12-9.484 4.12-3.737 0-5.557-2.683l-9.005-20.98h-2.97zm0-48.762v14.37h.48q9.1 0 9.1-7.568 0-3.45-1.82-5.078-1.724-1.724-5.748-1.724zM540.6 144.019v-34.105h-6.802q-1.628 0-2.299-4.12-.287-2.011-.287-4.119 0-2.107.287-4.12.67-4.119 2.3-4.119h32.188q1.629 0 2.204 4.12.383 2.012.383 4.12 0 2.107-.383 4.119-.575 4.119-2.204 4.119h-6.418v34.105h6.706q1.628 0 2.299 4.12.383 2.01.383 4.119 0 2.107-.383 4.119-.67 4.12-2.3 4.12H533.99q-1.629 0-2.203-4.12-.384-2.012-.384-4.12 0-2.107.384-4.119.574-4.12 2.203-4.12zM606.577 120.069q1.82 0 1.82 6.706 0 2.012-.48 4.79-.382 2.682-1.532 2.682h-12.167v9.58h17.628q1.628 0 2.203 4.215.287 1.82.287 3.928 0 2.012-.574 5.27-.575 3.256-1.916 3.256h-32.764q-3.64 0-3.64-2.97V95.928q0-2.49 2.203-2.49h34.296q2.012 0 2.012 8.526 0 8.43-2.012 8.43h-17.723v9.676zM621.635 154.844V95.257q0-2.012 9.676-2.012 9.772 0 9.772 2.012v46.942h14.753q1.724 0 2.395 4.502.287 2.204.287 4.503t-.287 4.694q-.767 4.598-2.491 4.598h-29.506q-2.108 0-3.353-1.724-1.246-1.724-1.246-3.928zM681.323 154.844V95.257q0-2.012 9.676-2.012 9.771 0 9.771 2.012v46.942h14.754q1.724 0 2.395 4.502.287 2.204.287 4.503t-.287 4.694q-.767 4.598-2.491 4.598H685.92q-2.107 0-3.353-1.724-1.245-1.724-1.245-3.928zM752.459 161.454q-13.412 0-21.938-8.813-8.43-8.814-8.43-25.675 0-16.956 8.526-25.674 8.622-8.718 22.13-8.718 13.603 0 21.938 8.622 8.334 8.526 8.334 25.962 0 17.34-8.526 25.866-8.526 8.43-22.034 8.43zm.096-50.486q-4.599 0-7.76 4.215-3.066 4.215-3.066 11.88 0 7.567 2.97 11.687 2.97 4.023 7.76 4.023 4.886 0 7.856-4.12 3.065-4.118 3.065-11.782t-3.161-11.784q-3.066-4.12-7.664-4.12zM798.952 160.688q-8.718 0-8.718-1.916V96.694q0-3.258 2.97-3.258h16.86q14.18 0 20.406 5.844 6.323 5.844 6.323 16.957 0 9.197-5.94 16.86-2.97 3.833-8.717 6.132-5.748 2.299-13.412 2.299v17.148q0 1.15-3.64 1.629-3.545.383-6.132.383zm9.772-50.582v15.136h1.245q3.353 0 5.652-2.108 2.3-2.107 2.3-5.94 0-3.831-1.63-5.46-1.532-1.628-5.556-1.628zM876.388 120.069q1.82 0 1.82 6.706 0 2.012-.479 4.79-.383 2.682-1.532 2.682H864.03v9.58h17.627q1.629 0 2.204 4.215.287 1.82.287 3.928 0 2.012-.575 5.27-.575 3.256-1.916 3.256h-32.763q-3.64 0-3.64-2.97V95.928q0-2.49 2.203-2.49h34.296q2.012 0 2.012 8.526 0 8.43-2.012 8.43H864.03v9.676zM894.896 110.872q-1.629 0-2.3-4.407-.287-1.82-.287-4.023 0-2.204.479-4.599.862-4.407 2.874-4.407h35.446q5.844 0 7.568 10.634.383 2.3.383 3.353l-22.417 34.01h17.723q2.108 0 2.97 4.598.383 2.203.383 4.598t-.575 5.077q-1.053 4.79-3.257 4.79H896.62q-.862 0-3.161-5.748-2.204-5.843-2.204-7.28 0-1.437.288-1.82l22.417-34.776z"/></g><path d="M28.221 130.328c.513-30.754 14.932-61.136 38.76-80.774C85.877 33.98 110.054 25.166 134.685 25c.427 0 .854 0 1.28.002 19.488.22 38.922 5.937 55.507 16.243a107.31 107.31 0 0113.22 8.87c11.18 5.313 21.06 13.037 28.44 23.632 9.967 14.31 13.436 32.712 10.468 49.996-.043.256-.09.514-.135.77 1.035 17.632-2.295 35.525-10.05 51.422-5.007 10.26-11.828 19.528-19.975 27.484-26.653 32.323-74.316 47.27-115.378 30.568-11.923-4.85-22.767-12.121-31.961-21.103-15.827-7.448-29.396-19.528-36.234-35.924-6.164-14.78-6.202-30.914-1.647-46.632zm153.719 94.385a106.948 106.948 0 01-10.228 3.915c-14.955 5.686-31.18 8.215-47.288 7.05 15.498 2.074 31.59.427 46.772-5.749a91.717 91.717 0 0010.744-5.216zm46.993-64.257a116.335 116.335 0 01-9.448 12.573 86.764 86.764 0 01-3.973 7.376c-17.493 29.01-51.408 46.984-85.968 45.898 9.756 1.31 19.782 1.117 29.731-.8a86.506 86.506 0 007.571-1.813c28.367-10.53 52.269-33.838 62.087-63.234zm-33.792 34.54c-17.428 12.308-37.983 21.044-59.222 24.942a85.567 85.567 0 0011.833-1.049c17.774-2.818 34.39-11.466 47.39-23.892zM146.78 44.464c-33.423 3.162-65.925 18.472-88.804 42.109-6.653 10.648-11.101 22.74-12.553 35.666a99.89 99.89 0 00.595 22.325c6.032 36.06 36.008 67.513 73.672 74.118 15.148-1.222 30.37-5.14 44.5-11.057 16.325-6.837 31.778-16.815 44.513-28.995 4.44-6.864 7.932-14.34 10.242-22.236 8.539-29.184.556-62.54-20.27-84.788-13.603-14.528-32.178-24.122-51.895-27.142zM83.635 215.966c-14.78-10.087-27.038-23.928-34.895-40.031a99.602 99.602 0 01-6.54-17.402l-.087-.296a89.038 89.038 0 01-2.006-8.341c1.193 11.732 4.43 23.24 9.701 33.774 8.467 13.208 20.203 24.3 33.823 32.294zm-54.548-70.704c-1.64 21.53 5.823 43.276 25.675 57.485a80.995 80.995 0 004.557 3.03c-16.133-16.161-27.153-37.533-30.232-60.515zm201.858 4.651c1.621-16.42-1.035-33.229-7.402-48.458 6.204 18.97 6.662 39.937.786 59.124a105.734 105.734 0 006.616-10.666zM39.1 111.967a83.709 83.709 0 00-3.241 6.564c-.86 6.51-1.1 13.102-.699 19.65.2-8.852 1.54-17.682 3.94-26.214zM170.67 44.443a98.126 98.126 0 018.986 4.318c18.858 9.492 34.878 24.715 44.68 43.516a98.244 98.244 0 016.892 16.93c-5.521-24.286-20.036-46.716-41.155-61.041-6.36-1.864-12.905-3.073-19.403-3.723zM43.1 99.845A99.694 99.694 0 0151.037 81c6.622-12.055 15.774-22.583 26.578-31.034-10.595 7.347-19.811 16.666-26.83 27.526-6.075 9.4-10.444 19.859-13.028 30.748a115.375 115.375 0 015.343-8.395zm174.346-37.908c5.14 5.634 9.65 11.839 13.372 18.518 4.746 8.52 8.182 17.715 10.298 27.213-1.218-17.406-9.325-34.254-23.67-45.731zm-86.11-18.456c-24.16.752-47.112 12.14-63.283 29.83.346-.276.692-.55 1.038-.823 18.188-14.261 39.644-24.344 62.244-29.007zm10.365-9.347h-1.244c-11.75.114-23.368 2.532-34.226 6.875 8.677-2.626 17.726-4.047 26.835-4.133.411-.002.82-.002 1.23 0 8.59.081 17.126 1.352 25.345 3.697 6.69.042 13.431.602 20.043 1.756-11.848-5.207-24.782-8.067-37.983-8.195z" fill="#008ccf"/></svg>